<svg width="290.9" height="86.4" viewBox="0 0 290.9 86.4" xmlns="http://www.w3.org/2000/svg"><g id="svgGroup" stroke-linecap="round" fill-rule="evenodd" font-size="9pt" stroke="currentColor" stroke-width="0.25mm" fill="currentColor" style="stroke:currentColor;stroke-width:0.25mm;fill:currentColor"><path d="M 62.4 69.9 L 54.2 69.9 L 54.2 8 L 89.3 8 L 89.3 15 L 62.4 15 L 62.4 34.3 L 86.1 34.3 L 86.1 41.2 L 62.4 41.2 L 62.4 69.9 Z M 144.2 69.9 L 135.5 69.9 L 131.8 53.7 L 108 53.7 L 104.4 69.9 L 96 69.9 Q 97.7 63.3 99.8 55.6 A 595.688 595.688 0 0 1 104.045 40.811 A 649.856 649.856 0 0 1 104.35 39.8 Q 106.8 31.7 109.5 23.55 Q 112.2 15.4 115.2 8 L 125.4 8 Q 128.3 15.4 130.95 23.55 Q 133.6 31.7 135.95 39.8 A 1021.554 1021.554 0 0 1 140.269 55.118 A 938.195 938.195 0 0 1 140.4 55.6 Q 142.5 63.3 144.2 69.9 Z M 238.2 0 L 210.5 86.4 L 202 86.4 L 229.9 0 L 238.2 0 Z M 40.9 31.4 L 9.2 44.4 L 40.9 57.5 L 38.6 64.4 L 0 48 L 0 40.9 L 38.6 24.5 L 40.9 31.4 Z M 281.7 44.4 L 250 31.4 L 252.3 24.5 L 290.9 40.9 L 290.9 48 L 252.3 64.4 L 250 57.5 L 281.7 44.4 Z M 109.9 46.9 L 129.9 46.9 A 317.844 317.844 0 0 0 125.28 30.596 A 291.086 291.086 0 0 0 124.95 29.55 A 348.397 348.397 0 0 0 123.012 23.618 Q 122.028 20.7 121.097 18.142 A 181.756 181.756 0 0 0 120 15.2 A 350.846 350.846 0 0 0 117.911 21.095 Q 116.519 25.131 115 29.8 Q 112.3 38.1 109.9 46.9 Z" vector-effect="non-scaling-stroke"/></g></svg>